<?xml version="1.0" encoding="UTF-8" standalone="no"?>
<!-- Created with Inkscape (http://www.inkscape.org/) -->

<svg
   xmlns:dc="http://purl.org/dc/elements/1.1/"
   xmlns:cc="http://creativecommons.org/ns#"
   xmlns:rdf="http://www.w3.org/1999/02/22-rdf-syntax-ns#"
   xmlns:svg="http://www.w3.org/2000/svg"
   xmlns="http://www.w3.org/2000/svg"
   xmlns:sodipodi="http://sodipodi.sourceforge.net/DTD/sodipodi-0.dtd"
   xmlns:inkscape="http://www.inkscape.org/namespaces/inkscape"
   width="210mm"
   height="297mm"
   viewBox="0 0 210 297"
   version="1.1"
   id="svg8"
   inkscape:version="0.92.4 (5da689c313, 2019-01-14)"
   sodipodi:docname="drawing.svg">
  <defs
     id="defs2" />
  <sodipodi:namedview
     id="base"
     pagecolor="#ffffff"
     bordercolor="#666666"
     borderopacity="1.0"
     inkscape:pageopacity="0.0"
     inkscape:pageshadow="2"
     inkscape:zoom="1.4"
     inkscape:cx="119.99155"
     inkscape:cy="549.01175"
     inkscape:document-units="mm"
     inkscape:current-layer="layer1-1"
     showgrid="false"
     inkscape:window-width="1920"
     inkscape:window-height="1001"
     inkscape:window-x="-9"
     inkscape:window-y="-9"
     inkscape:window-maximized="1" />
  <metadata
     id="metadata5">
    <rdf:RDF>
      <cc:Work
         rdf:about="">
        <dc:format>image/svg+xml</dc:format>
        <dc:type
           rdf:resource="http://purl.org/dc/dcmitype/StillImage" />
        <dc:title />
      </cc:Work>
    </rdf:RDF>
  </metadata>
  <g
     inkscape:label="Layer 1"
     inkscape:groupmode="layer"
     id="layer1">
    <path
       style="fill:none;stroke:#000000;stroke-width:0.26458332px;stroke-linecap:butt;stroke-linejoin:miter;stroke-opacity:1"
       d="m 45.735118,59.158482 c -2.73389,-7.305755 -4.093576,-16.501938 1.178652,-22.492411 5.272228,-5.990474 17.36073,-6.974314 24.948952,-4.532886 7.588221,2.441428 16.401087,0.228443 21.582398,5.106894 5.181311,4.878451 4.545205,12.64372 4.545205,21.918401 0,4.820773 4.076755,18.546063 -1.626711,24.263767 -5.269428,5.282583 -20.159965,2.761531 -24.500892,2.761531 -9.039414,0 -20.466443,1.867851 -25.24418,-3.405043 -4.777737,-5.272895 1.850466,-16.314499 -0.883424,-23.620253 z"
       id="path4518"
       inkscape:connector-curvature="0"
       sodipodi:nodetypes="zzzzssszz" />
    <path
       style="opacity:1;vector-effect:none;fill:none;fill-opacity:1;stroke:#000000;stroke-width:0.46434376;stroke-linecap:round;stroke-linejoin:round;stroke-miterlimit:10;stroke-dasharray:none;stroke-dashoffset:0;stroke-opacity:1"
       d="m 58.113839,94.299414 c 8.123571,0.299259 17.677248,-1.821427 24.197943,3.032696 4.990258,3.71484 8.886774,11.00174 7.535788,17.07443 -0.59649,2.68122 -4.202283,3.54204 -6.209491,5.41711 -8.922782,8.33537 -22.102122,14.29819 -25.902218,25.90223 -4.192257,12.80155 10.723846,27.27734 6.136923,39.94284 C 59.280975,198.34771 46.972577,213.7428 33.550068,212.44755 18.508142,210.99603 7.0861413,191.5617 5.9343046,176.49386 5.190887,166.76879 13.029231,157.64658 20.023794,150.8491 c 4.834462,-4.69825 19.338017,-2.62147 17.996012,-9.22787 -2.12168,-10.44458 -26.919003,7.09658 -31.8885424,-2.3318 -4.4020683,-8.35176 9.2849234,-16.44724 14.2604604,-24.47059 4.04753,-6.52688 6.009138,-15.426353 12.67535,-19.24005 7.256265,-4.151263 16.692625,-1.587129 25.046765,-1.279376 z"
       id="rect4520"
       inkscape:connector-curvature="0"
       sodipodi:nodetypes="aaaaaaaaaaaaaa" />
    <g
       id="layer1-1"
       inkscape:label="Layer 1"
       transform="translate(-110.97463,13.640677)">
      <path
         sodipodi:nodetypes="aaaaaaaaa"
         inkscape:connector-curvature="0"
         id="rect815"
         d="M 20.236904,124.92985 C 21.697021,99.666567 48.66268,63.256601 72.964585,70.312282 c 12.34636,3.584574 17.036569,28.875158 7.763008,37.779248 -6.761704,6.49231 -24.717822,-15.788077 -27.293526,-6.77495 -1.341335,4.69372 10.72025,0.83824 13.931508,4.51492 3.899928,4.46516 4.153442,11.65882 3.157233,17.50302 -0.830061,4.8695 -3.135764,10.2532 -7.313678,12.88874 -9.207659,5.80846 -22.654266,6.79043 -32.577885,2.31373 C 25.42848,136.18994 19.907573,130.628 20.236904,124.92985 Z"
         style="opacity:1;vector-effect:none;fill:none;fill-opacity:1;stroke:#000000;stroke-width:0.46434376;stroke-linecap:round;stroke-linejoin:round;stroke-miterlimit:10;stroke-dasharray:none;stroke-dashoffset:0;stroke-opacity:1" />
      <path
         sodipodi:nodetypes="ccc"
         inkscape:connector-curvature="0"
         id="path818"
         d="m 67.365575,105.8315 -13.931508,-4.51492 27.293526,6.77495"
         style="fill:none;stroke:#000000;stroke-width:0.26458332px;stroke-linecap:butt;stroke-linejoin:miter;stroke-opacity:1" />
    </g>
  </g>
</svg>
